<svg width="260" height="250" viewBox="0 0 260 250" fill="none" xmlns="http://www.w3.org/2000/svg">
<path d="M129.999 20.8335C108.573 20.8335 87.6279 26.9428 69.8126 38.3887C51.9973 49.8347 38.1119 66.1033 29.9124 85.1373C21.713 104.171 19.5676 125.116 23.7477 145.322C27.9277 165.528 38.2455 184.089 53.3962 198.657C68.5469 213.225 87.85 223.146 108.865 227.165C129.879 231.185 151.661 229.122 171.457 221.238C191.252 213.353 208.171 200.002 220.075 182.872C231.979 165.742 238.333 145.602 238.333 125C238.333 111.321 235.531 97.7754 230.086 85.1373C224.642 72.4992 216.662 61.016 206.603 51.3432C196.543 41.6704 184.6 33.9976 171.457 28.7627C158.313 23.5278 144.226 20.8335 129.999 20.8335ZM176.583 100.104L127.074 162.604C126.065 163.865 124.769 164.886 123.286 165.591C121.802 166.295 120.171 166.663 118.516 166.667C116.871 166.675 115.245 166.323 113.762 165.637C112.279 164.952 110.978 163.95 109.958 162.708L83.5244 130.313C82.6495 129.232 82.0045 127.996 81.6262 126.676C81.248 125.355 81.1439 123.976 81.32 122.617C81.496 121.258 81.9487 119.946 82.6522 118.755C83.3558 117.564 84.2963 116.519 85.4202 115.677C87.69 113.978 90.5688 113.216 93.4233 113.558C94.8367 113.727 96.2015 114.162 97.44 114.839C98.6784 115.515 99.7661 116.419 100.641 117.5L118.299 139.167L159.249 87.0835C160.117 85.9891 161.201 85.0699 162.438 84.3781C163.675 83.6864 165.042 83.2358 166.461 83.052C167.879 82.8682 169.321 82.9549 170.705 83.307C172.088 83.6592 173.386 84.2699 174.524 85.1043C175.663 85.9388 176.619 86.9806 177.338 88.1703C178.057 89.36 178.526 90.6743 178.717 92.0382C178.908 93.402 178.818 94.7887 178.452 96.1191C178.086 97.4495 177.451 98.6975 176.583 99.7918V100.104Z" fill="#FBB847"/>
</svg>
